<mxfile host="app.diagrams.net" agent="Mozilla/5.0 (Windows NT 10.0; Win64; x64; rv:131.0) Gecko/20100101 Firefox/131.0" version="24.8.3" pages="5">
  <diagram name="Landing Page" id="ds52c9g-PW3EbVCJLWno">
    <mxGraphModel dx="1235" dy="769" grid="1" gridSize="10" guides="1" tooltips="1" connect="1" arrows="1" fold="1" page="1" pageScale="1" pageWidth="850" pageHeight="1100" math="0" shadow="0">
      <root>
        <mxCell id="0" />
        <mxCell id="1" parent="0" />
        <mxCell id="qyInoXPJ7crAib3qLmuz-131" value="" style="whiteSpace=wrap;html=1;rounded=0;shadow=0;labelBackgroundColor=none;strokeColor=#000000;strokeWidth=1;fillColor=none;fontFamily=Verdana;fontSize=12;fontColor=#000000;align=center;comic=0;" vertex="1" parent="1">
          <mxGeometry x="8.280000000000001" y="24.789999999999992" width="1094.12" height="790" as="geometry" />
        </mxCell>
        <mxCell id="XVQIEKRGcIimi1iIqSV5-82" value="Regulatory Science Lab" style="whiteSpace=wrap;html=1;rounded=0;shadow=0;labelBackgroundColor=none;strokeWidth=1;fontFamily=Verdana;fontSize=28;align=center;comic=0;" vertex="1" parent="1">
          <mxGeometry x="40" y="60" width="360" height="50" as="geometry" />
        </mxCell>
        <mxCell id="XVQIEKRGcIimi1iIqSV5-89" value="" style="line;strokeWidth=1;html=1;rounded=0;shadow=0;labelBackgroundColor=none;fillColor=none;fontFamily=Verdana;fontSize=14;fontColor=#000000;align=center;comic=0;" vertex="1" parent="1">
          <mxGeometry x="20" y="140" width="1060" height="10" as="geometry" />
        </mxCell>
        <mxCell id="XVQIEKRGcIimi1iIqSV5-130" value="Genetic Testing" style="text;html=1;points=[];align=left;verticalAlign=top;spacingTop=-4;fontSize=14;fontFamily=Verdana;comic=0;" vertex="1" parent="1">
          <mxGeometry x="650" y="75" width="60" height="20" as="geometry" />
        </mxCell>
        <mxCell id="XVQIEKRGcIimi1iIqSV5-131" value="Treatment" style="text;html=1;points=[];align=left;verticalAlign=top;spacingTop=-4;fontSize=14;fontFamily=Verdana;comic=0;" vertex="1" parent="1">
          <mxGeometry x="786" y="75" width="60" height="20" as="geometry" />
        </mxCell>
        <mxCell id="XVQIEKRGcIimi1iIqSV5-132" value="Outcomes" style="text;html=1;points=[];align=left;verticalAlign=top;spacingTop=-4;fontSize=14;fontFamily=Verdana;comic=0;" vertex="1" parent="1">
          <mxGeometry x="893" y="75" width="60" height="20" as="geometry" />
        </mxCell>
        <mxCell id="XVQIEKRGcIimi1iIqSV5-133" value="Demographics" style="text;html=1;points=[];align=left;verticalAlign=top;spacingTop=-4;fontSize=14;fontFamily=Verdana;comic=0;" vertex="1" parent="1">
          <mxGeometry x="520" y="75" width="60" height="20" as="geometry" />
        </mxCell>
        <mxCell id="XVQIEKRGcIimi1iIqSV5-134" value="Home" style="text;html=1;points=[];align=left;verticalAlign=top;spacingTop=-4;fontSize=14;fontFamily=Verdana;comic=0;" vertex="1" parent="1">
          <mxGeometry x="450" y="75" width="60" height="20" as="geometry" />
        </mxCell>
        <mxCell id="qyInoXPJ7crAib3qLmuz-1" value="Actor" style="shape=umlActor;verticalLabelPosition=bottom;verticalAlign=top;html=1;outlineConnect=0;labelPosition=center;align=center;noLabel=1;" vertex="1" parent="1">
          <mxGeometry x="47.94" y="210" width="205" height="460" as="geometry" />
        </mxCell>
        <mxCell id="qyInoXPJ7crAib3qLmuz-5" value="" style="shape=image;html=1;verticalAlign=top;verticalLabelPosition=bottom;labelBackgroundColor=#ffffff;imageAspect=0;aspect=fixed;image=https://cdn2.iconfinder.com/data/icons/boxicons-regular-vol-3/24/bx-pointer-128.png" vertex="1" parent="1">
          <mxGeometry x="172.94" y="360" width="28" height="28" as="geometry" />
        </mxCell>
        <mxCell id="qyInoXPJ7crAib3qLmuz-9" value="" style="rounded=0;whiteSpace=wrap;html=1;" vertex="1" parent="1">
          <mxGeometry x="680" y="480" width="390" height="270" as="geometry" />
        </mxCell>
        <mxCell id="qyInoXPJ7crAib3qLmuz-6" value="" style="rounded=0;whiteSpace=wrap;html=1;allowArrows=0;connectable=0;" vertex="1" parent="1">
          <mxGeometry x="280" y="170" width="400" height="310" as="geometry" />
        </mxCell>
        <mxCell id="qyInoXPJ7crAib3qLmuz-75" value="" style="group" vertex="1" connectable="0" parent="1">
          <mxGeometry x="680" y="170" width="390" height="310" as="geometry" />
        </mxCell>
        <mxCell id="qyInoXPJ7crAib3qLmuz-7" value="" style="rounded=0;whiteSpace=wrap;html=1;" vertex="1" parent="qyInoXPJ7crAib3qLmuz-75">
          <mxGeometry width="390" height="310" as="geometry" />
        </mxCell>
        <mxCell id="qyInoXPJ7crAib3qLmuz-13" value="" style="whiteSpace=wrap;gradientDirection=east;html=1;rotation=90;" vertex="1" parent="qyInoXPJ7crAib3qLmuz-75">
          <mxGeometry x="41.27999999999997" y="20.710000000000008" width="44.68" height="106.85" as="geometry" />
        </mxCell>
        <mxCell id="qyInoXPJ7crAib3qLmuz-37" value="" style="whiteSpace=wrap;fillColor=#999999;gradientColor=none;gradientDirection=east;strokeColor=none;html=1;fontColor=#23445d;rotation=90;" vertex="1" parent="qyInoXPJ7crAib3qLmuz-75">
          <mxGeometry x="112.38" y="55.58000000000001" width="44.68" height="37.12" as="geometry" />
        </mxCell>
        <mxCell id="qyInoXPJ7crAib3qLmuz-38" value="" style="whiteSpace=wrap;fillColor=#1A1A1A;gradientColor=none;gradientDirection=east;strokeColor=none;html=1;fontColor=#23445d;rotation=90;" vertex="1" parent="qyInoXPJ7crAib3qLmuz-75">
          <mxGeometry x="151.48468085106379" y="45.57384615384609" width="44.68085106382976" height="57.11538461538458" as="geometry" />
        </mxCell>
        <mxCell id="qyInoXPJ7crAib3qLmuz-11" value="" style="whiteSpace=wrap;gradientDirection=east;html=1;rotation=90;" vertex="1" parent="qyInoXPJ7crAib3qLmuz-75">
          <mxGeometry x="5" y="205" width="44.68" height="35.96" as="geometry" />
        </mxCell>
        <mxCell id="qyInoXPJ7crAib3qLmuz-12" value="" style="whiteSpace=wrap;gradientDirection=east;html=1;rotation=90;" vertex="1" parent="qyInoXPJ7crAib3qLmuz-75">
          <mxGeometry x="15.990000000000009" y="125.32999999999998" width="44.68" height="56.07" as="geometry" />
        </mxCell>
        <mxCell id="qyInoXPJ7crAib3qLmuz-14" value="" style="edgeStyle=none;html=1;fontColor=#000000;strokeWidth=3;strokeColor=#000000;rounded=0;endArrow=none;endFill=0;" edge="1" parent="qyInoXPJ7crAib3qLmuz-75">
          <mxGeometry width="100" height="100" relative="1" as="geometry">
            <mxPoint x="10" y="279.9999999999999" as="sourcePoint" />
            <mxPoint x="10" y="30.769230769230774" as="targetPoint" />
          </mxGeometry>
        </mxCell>
        <mxCell id="qyInoXPJ7crAib3qLmuz-17" value="" style="whiteSpace=wrap;fillColor=#999999;gradientColor=none;gradientDirection=east;strokeColor=none;html=1;fontColor=#23445d;rotation=90;" vertex="1" parent="qyInoXPJ7crAib3qLmuz-75">
          <mxGeometry x="64.64851063829781" y="181.44153846153836" width="44.68085106382976" height="83.07692307692292" as="geometry" />
        </mxCell>
        <mxCell id="qyInoXPJ7crAib3qLmuz-18" value="" style="whiteSpace=wrap;fillColor=#1A1A1A;gradientColor=none;gradientDirection=east;strokeColor=none;html=1;fontColor=#23445d;rotation=90;" vertex="1" parent="qyInoXPJ7crAib3qLmuz-75">
          <mxGeometry x="113.6585106382978" y="215.19461538461525" width="44.68085106382976" height="15.576923076923066" as="geometry" />
        </mxCell>
        <mxCell id="qyInoXPJ7crAib3qLmuz-19" value="" style="whiteSpace=wrap;fillColor=#999999;gradientColor=none;gradientDirection=east;strokeColor=none;html=1;fontColor=#23445d;rotation=90;" vertex="1" parent="qyInoXPJ7crAib3qLmuz-75">
          <mxGeometry x="85.95659574468095" y="111.82999999999993" width="44.68085106382976" height="83.07692307692304" as="geometry" />
        </mxCell>
        <mxCell id="qyInoXPJ7crAib3qLmuz-20" value="" style="whiteSpace=wrap;fillColor=#1A1A1A;gradientColor=none;gradientDirection=east;strokeColor=none;html=1;fontColor=#23445d;rotation=90;" vertex="1" parent="qyInoXPJ7crAib3qLmuz-75">
          <mxGeometry x="130.6365957446809" y="142.98076923076917" width="44.68085106382976" height="20.76923076923076" as="geometry" />
        </mxCell>
        <mxCell id="qyInoXPJ7crAib3qLmuz-21" value="" style="edgeStyle=none;html=1;fontColor=#000000;strokeWidth=3;strokeColor=#000000;rounded=0;endArrow=none;endFill=0;" edge="1" parent="qyInoXPJ7crAib3qLmuz-75">
          <mxGeometry width="100" height="100" relative="1" as="geometry">
            <mxPoint x="10" y="279.9999999999999" as="sourcePoint" />
            <mxPoint x="352.5531914893618" y="279.9999999999999" as="targetPoint" />
          </mxGeometry>
        </mxCell>
        <mxCell id="qyInoXPJ7crAib3qLmuz-26" value="" style="whiteSpace=wrap;gradientDirection=east;html=1;" vertex="1" parent="qyInoXPJ7crAib3qLmuz-75">
          <mxGeometry x="289.99914893616995" y="92.69692307692304" width="13.031914893617055" height="15.576923076923187" as="geometry" />
        </mxCell>
        <mxCell id="qyInoXPJ7crAib3qLmuz-27" value="" style="whiteSpace=wrap;fillColor=#999999;gradientColor=none;gradientDirection=east;strokeColor=none;html=1;fontColor=#23445d;" vertex="1" parent="qyInoXPJ7crAib3qLmuz-75">
          <mxGeometry x="289.9991489361697" y="72.30769230769226" width="13.031914893617055" height="15.576923076923187" as="geometry" />
        </mxCell>
        <mxCell id="qyInoXPJ7crAib3qLmuz-28" value="" style="whiteSpace=wrap;fillColor=#1A1A1A;gradientColor=none;gradientDirection=east;strokeColor=none;html=1;fontColor=#23445d;" vertex="1" parent="qyInoXPJ7crAib3qLmuz-75">
          <mxGeometry x="289.99914893616995" y="51.53846153846152" width="13.031914893617055" height="15.576923076923132" as="geometry" />
        </mxCell>
        <mxCell id="qyInoXPJ7crAib3qLmuz-36" value="&lt;font style=&quot;font-size: 18px;&quot;&gt;Types of Genetic Testing&lt;/font&gt;" style="text;spacingTop=-5;align=center;verticalAlign=middle;fontSize=30;fontStyle=1;html=1;points=[]" vertex="1" parent="qyInoXPJ7crAib3qLmuz-75">
          <mxGeometry x="28.61702127659578" y="10" width="301.595744680851" height="23.365384615384606" as="geometry" />
        </mxCell>
        <mxCell id="qyInoXPJ7crAib3qLmuz-29" value="&lt;font style=&quot;font-size: 10px;&quot;&gt;Single-gene&lt;/font&gt;" style="text;spacingTop=-5;html=1;points=[];fontSize=15;" vertex="1" parent="qyInoXPJ7crAib3qLmuz-75">
          <mxGeometry x="309.9983333333332" y="48.06999999999999" width="29.784999999999986" height="3.4649999999999994" as="geometry" />
        </mxCell>
        <mxCell id="qyInoXPJ7crAib3qLmuz-30" value="&lt;font style=&quot;font-size: 10px;&quot;&gt;Multi-gene&lt;/font&gt;" style="text;spacingTop=-5;html=1;points=[];fontSize=15;" vertex="1" parent="qyInoXPJ7crAib3qLmuz-75">
          <mxGeometry x="310.00276595744674" y="67.1188461538461" width="29.78723404255319" height="10.38461538461538" as="geometry" />
        </mxCell>
        <mxCell id="qyInoXPJ7crAib3qLmuz-31" value="&lt;font style=&quot;font-size: 10px;&quot;&gt;WGS&lt;/font&gt;" style="text;spacingTop=-5;html=1;points=[];fontSize=15;" vertex="1" parent="qyInoXPJ7crAib3qLmuz-75">
          <mxGeometry x="310.00276595744674" y="87.88807692307682" width="29.78723404255319" height="10.38461538461538" as="geometry" />
        </mxCell>
        <mxCell id="qyInoXPJ7crAib3qLmuz-77" value="" style="rounded=0;whiteSpace=wrap;html=1;" vertex="1" parent="1">
          <mxGeometry x="280" y="480" width="400" height="270" as="geometry" />
        </mxCell>
        <mxCell id="qyInoXPJ7crAib3qLmuz-105" value="" style="group" vertex="1" connectable="0" parent="1">
          <mxGeometry x="309.35079105291874" y="488.7096774193548" width="332.2422258592472" height="237.42129032258055" as="geometry" />
        </mxCell>
        <mxCell id="qyInoXPJ7crAib3qLmuz-78" value="" style="whiteSpace=wrap;gradientDirection=east;html=1;rotation=90;" vertex="1" parent="qyInoXPJ7crAib3qLmuz-105">
          <mxGeometry x="44.8276704855428" y="14.288064516129054" width="45.82564102564102" height="93.06290322580645" as="geometry" />
        </mxCell>
        <mxCell id="qyInoXPJ7crAib3qLmuz-81" value="" style="whiteSpace=wrap;gradientDirection=east;html=1;rotation=90;" vertex="1" parent="qyInoXPJ7crAib3qLmuz-105">
          <mxGeometry x="16.309208947081288" y="176.95032258064515" width="45.83" height="40" as="geometry" />
        </mxCell>
        <mxCell id="qyInoXPJ7crAib3qLmuz-82" value="" style="whiteSpace=wrap;gradientDirection=east;html=1;rotation=90;" vertex="1" parent="qyInoXPJ7crAib3qLmuz-105">
          <mxGeometry x="20.64920894708132" y="101.8687096774193" width="45.82564102564102" height="48.83516129032258" as="geometry" />
        </mxCell>
        <mxCell id="qyInoXPJ7crAib3qLmuz-83" value="" style="edgeStyle=none;html=1;fontColor=#000000;strokeWidth=3;strokeColor=#000000;rounded=0;endArrow=none;endFill=0;" edge="1" parent="qyInoXPJ7crAib3qLmuz-105">
          <mxGeometry width="100" height="100" relative="1" as="geometry">
            <mxPoint x="20.64561920349155" y="237.42129032258055" as="sourcePoint" />
            <mxPoint x="20.64561920349155" y="20.349330024813924" as="targetPoint" />
          </mxGeometry>
        </mxCell>
        <mxCell id="qyInoXPJ7crAib3qLmuz-88" value="" style="edgeStyle=none;html=1;fontColor=#000000;strokeWidth=3;strokeColor=#000000;rounded=0;endArrow=none;endFill=0;" edge="1" parent="qyInoXPJ7crAib3qLmuz-105">
          <mxGeometry width="100" height="100" relative="1" as="geometry">
            <mxPoint x="20.649208947081263" y="235.29032258064518" as="sourcePoint" />
            <mxPoint x="332.2422258592472" y="235.16129032258056" as="targetPoint" />
          </mxGeometry>
        </mxCell>
        <mxCell id="qyInoXPJ7crAib3qLmuz-92" value="&lt;font style=&quot;font-size: 18px;&quot;&gt;Treatment types&lt;/font&gt;" style="text;spacingTop=-5;align=center;verticalAlign=middle;fontSize=30;fontStyle=1;html=1;points=[]" vertex="1" parent="qyInoXPJ7crAib3qLmuz-105">
          <mxGeometry width="309.3289689034369" height="20.350496277915624" as="geometry" />
        </mxCell>
        <mxCell id="qyInoXPJ7crAib3qLmuz-111" value="" style="edgeStyle=none;html=1;fontColor=#000000;strokeWidth=3;strokeColor=#000000;rounded=0;endArrow=none;endFill=0;" edge="1" parent="1">
          <mxGeometry width="100" height="100" relative="1" as="geometry">
            <mxPoint x="710.6464102564103" y="726.1309677419354" as="sourcePoint" />
            <mxPoint x="710.6464102564103" y="509.05900744416874" as="targetPoint" />
          </mxGeometry>
        </mxCell>
        <mxCell id="qyInoXPJ7crAib3qLmuz-112" value="" style="edgeStyle=none;html=1;fontColor=#000000;strokeWidth=3;strokeColor=#000000;rounded=0;endArrow=none;endFill=0;" edge="1" parent="1">
          <mxGeometry width="100" height="100" relative="1" as="geometry">
            <mxPoint x="710.6499999999999" y="724" as="sourcePoint" />
            <mxPoint x="1022.2430169121658" y="723.8709677419354" as="targetPoint" />
          </mxGeometry>
        </mxCell>
        <mxCell id="qyInoXPJ7crAib3qLmuz-113" value="&lt;font style=&quot;font-size: 18px;&quot;&gt;Post-diagnosis survival rate by year&lt;/font&gt;" style="text;spacingTop=-5;align=center;verticalAlign=middle;fontSize=30;fontStyle=1;html=1;points=[]" vertex="1" parent="1">
          <mxGeometry x="720.3307910529187" y="488.7096774193548" width="309.3289689034369" height="20.350496277915624" as="geometry" />
        </mxCell>
        <mxCell id="qyInoXPJ7crAib3qLmuz-114" value="" style="endArrow=none;html=1;rounded=0;strokeWidth=2;" edge="1" parent="1">
          <mxGeometry width="50" height="50" relative="1" as="geometry">
            <mxPoint x="710" y="628.71" as="sourcePoint" />
            <mxPoint x="780" y="578.71" as="targetPoint" />
          </mxGeometry>
        </mxCell>
        <mxCell id="qyInoXPJ7crAib3qLmuz-115" value="" style="endArrow=none;html=1;rounded=0;strokeWidth=2;entryX=0.792;entryY=0.734;entryDx=0;entryDy=0;entryPerimeter=0;" edge="1" parent="1">
          <mxGeometry width="50" height="50" relative="1" as="geometry">
            <mxPoint x="780" y="578.71" as="sourcePoint" />
            <mxPoint x="859.4830400000001" y="608.57" as="targetPoint" />
          </mxGeometry>
        </mxCell>
        <mxCell id="qyInoXPJ7crAib3qLmuz-116" value="" style="endArrow=none;html=1;rounded=0;strokeWidth=2;" edge="1" parent="1">
          <mxGeometry width="50" height="50" relative="1" as="geometry">
            <mxPoint x="860" y="608.71" as="sourcePoint" />
            <mxPoint x="930" y="558.71" as="targetPoint" />
          </mxGeometry>
        </mxCell>
        <mxCell id="4PnGIhgpf6ZRVwXPBGym-13" value="" style="group" vertex="1" connectable="0" parent="1">
          <mxGeometry x="319.9964102564103" y="229.99900744416874" width="330.0035897435897" height="220.07099255583125" as="geometry" />
        </mxCell>
        <mxCell id="qyInoXPJ7crAib3qLmuz-117" value="" style="edgeStyle=none;html=1;fontColor=#000000;strokeWidth=3;strokeColor=#000000;rounded=0;endArrow=none;endFill=0;" edge="1" parent="4PnGIhgpf6ZRVwXPBGym-13">
          <mxGeometry width="100" height="100" relative="1" as="geometry">
            <mxPoint x="160" y="217.07196029776662" as="sourcePoint" />
            <mxPoint x="160" as="targetPoint" />
          </mxGeometry>
        </mxCell>
        <mxCell id="qyInoXPJ7crAib3qLmuz-119" value="" style="edgeStyle=none;html=1;fontColor=#000000;strokeWidth=3;strokeColor=#000000;rounded=0;endArrow=none;endFill=0;" edge="1" parent="4PnGIhgpf6ZRVwXPBGym-13">
          <mxGeometry width="100" height="100" relative="1" as="geometry">
            <mxPoint x="330.0035897435897" y="220.07099255583125" as="sourcePoint" />
            <mxPoint y="220" as="targetPoint" />
          </mxGeometry>
        </mxCell>
        <mxCell id="qyInoXPJ7crAib3qLmuz-126" value="" style="whiteSpace=wrap;gradientDirection=east;html=1;rotation=90;" vertex="1" parent="4PnGIhgpf6ZRVwXPBGym-13">
          <mxGeometry x="188.34358974358975" y="131.24099255583127" width="15" height="67.5" as="geometry" />
        </mxCell>
        <mxCell id="qyInoXPJ7crAib3qLmuz-128" value="" style="whiteSpace=wrap;gradientDirection=east;html=1;rotation=90;" vertex="1" parent="4PnGIhgpf6ZRVwXPBGym-13">
          <mxGeometry x="174.49358974358972" y="160.00099255583126" width="15" height="39.79" as="geometry" />
        </mxCell>
        <mxCell id="qyInoXPJ7crAib3qLmuz-129" value="" style="whiteSpace=wrap;gradientDirection=east;html=1;rotation=90;" vertex="1" parent="4PnGIhgpf6ZRVwXPBGym-13">
          <mxGeometry x="207.84358974358975" y="95.50099255583126" width="15" height="107" as="geometry" />
        </mxCell>
        <mxCell id="qyInoXPJ7crAib3qLmuz-132" value="" style="whiteSpace=wrap;gradientDirection=east;html=1;rotation=90;" vertex="1" parent="4PnGIhgpf6ZRVwXPBGym-13">
          <mxGeometry x="222.84358974358975" y="65.00099255583126" width="15" height="136.5" as="geometry" />
        </mxCell>
        <mxCell id="qyInoXPJ7crAib3qLmuz-134" value="" style="whiteSpace=wrap;gradientDirection=east;html=1;rotation=90;" vertex="1" parent="4PnGIhgpf6ZRVwXPBGym-13">
          <mxGeometry x="229.84358974358975" y="42.00099255583126" width="15" height="150.5" as="geometry" />
        </mxCell>
        <mxCell id="4PnGIhgpf6ZRVwXPBGym-6" value="" style="whiteSpace=wrap;gradientDirection=east;html=1;rotation=90;" vertex="1" parent="4PnGIhgpf6ZRVwXPBGym-13">
          <mxGeometry x="220.0035897435897" y="36.00099255583126" width="15" height="132" as="geometry" />
        </mxCell>
        <mxCell id="4PnGIhgpf6ZRVwXPBGym-7" value="" style="whiteSpace=wrap;gradientDirection=east;html=1;rotation=90;" vertex="1" parent="4PnGIhgpf6ZRVwXPBGym-13">
          <mxGeometry x="217.0035897435897" y="23.00099255583126" width="15" height="126" as="geometry" />
        </mxCell>
        <mxCell id="4PnGIhgpf6ZRVwXPBGym-8" value="" style="whiteSpace=wrap;gradientDirection=east;html=1;rotation=90;" vertex="1" parent="4PnGIhgpf6ZRVwXPBGym-13">
          <mxGeometry x="207.0035897435897" y="18.00099255583126" width="15" height="105.12" as="geometry" />
        </mxCell>
        <mxCell id="4PnGIhgpf6ZRVwXPBGym-9" value="" style="whiteSpace=wrap;gradientDirection=east;html=1;rotation=90;" vertex="1" parent="4PnGIhgpf6ZRVwXPBGym-13">
          <mxGeometry x="191.0035897435897" y="18.00099255583126" width="15" height="75.62" as="geometry" />
        </mxCell>
        <mxCell id="4PnGIhgpf6ZRVwXPBGym-10" value="" style="whiteSpace=wrap;gradientDirection=east;html=1;rotation=90;" vertex="1" parent="4PnGIhgpf6ZRVwXPBGym-13">
          <mxGeometry x="183.0035897435897" y="11.00099255583126" width="15" height="58.5" as="geometry" />
        </mxCell>
        <mxCell id="qyInoXPJ7crAib3qLmuz-118" value="" style="whiteSpace=wrap;gradientDirection=east;html=1;rotation=90;fillColor=#E6E6E6;" vertex="1" parent="4PnGIhgpf6ZRVwXPBGym-13">
          <mxGeometry x="116.88358974358965" y="144.58099255583124" width="15" height="70.42" as="geometry" />
        </mxCell>
        <mxCell id="qyInoXPJ7crAib3qLmuz-127" value="" style="whiteSpace=wrap;gradientDirection=east;html=1;rotation=90;fillColor=#E6E6E6;" vertex="1" parent="4PnGIhgpf6ZRVwXPBGym-13">
          <mxGeometry x="106.00358974358971" y="118.97099255583129" width="15" height="91" as="geometry" />
        </mxCell>
        <mxCell id="qyInoXPJ7crAib3qLmuz-130" value="" style="whiteSpace=wrap;gradientDirection=east;html=1;rotation=90;fillColor=#E6E6E6;" vertex="1" parent="4PnGIhgpf6ZRVwXPBGym-13">
          <mxGeometry x="97.63358974358971" y="95.25099255583126" width="15" height="107" as="geometry" />
        </mxCell>
        <mxCell id="qyInoXPJ7crAib3qLmuz-133" value="" style="whiteSpace=wrap;gradientDirection=east;html=1;rotation=90;fillColor=#E6E6E6;" vertex="1" parent="4PnGIhgpf6ZRVwXPBGym-13">
          <mxGeometry x="88.06358974358972" y="70.18099255583127" width="15" height="125.63" as="geometry" />
        </mxCell>
        <mxCell id="qyInoXPJ7crAib3qLmuz-135" value="" style="whiteSpace=wrap;gradientDirection=east;html=1;rotation=90;fillColor=#E6E6E6;" vertex="1" parent="4PnGIhgpf6ZRVwXPBGym-13">
          <mxGeometry x="78.00358974358971" y="43.75099255583126" width="15" height="147" as="geometry" />
        </mxCell>
        <mxCell id="4PnGIhgpf6ZRVwXPBGym-1" value="" style="whiteSpace=wrap;gradientDirection=east;html=1;rotation=90;fillColor=#E6E6E6;" vertex="1" parent="4PnGIhgpf6ZRVwXPBGym-13">
          <mxGeometry x="81.50358974358971" y="31.50099255583126" width="15" height="140" as="geometry" />
        </mxCell>
        <mxCell id="4PnGIhgpf6ZRVwXPBGym-2" value="" style="whiteSpace=wrap;gradientDirection=east;html=1;rotation=90;fillColor=#E6E6E6;" vertex="1" parent="4PnGIhgpf6ZRVwXPBGym-13">
          <mxGeometry x="88.00358974358971" y="23.25099255583126" width="15" height="126.5" as="geometry" />
        </mxCell>
        <mxCell id="4PnGIhgpf6ZRVwXPBGym-3" value="" style="whiteSpace=wrap;gradientDirection=east;html=1;rotation=90;fillColor=#E6E6E6;" vertex="1" parent="4PnGIhgpf6ZRVwXPBGym-13">
          <mxGeometry x="99.00358974358971" y="18.95099255583125" width="15" height="105.12" as="geometry" />
        </mxCell>
        <mxCell id="4PnGIhgpf6ZRVwXPBGym-4" value="" style="whiteSpace=wrap;gradientDirection=east;html=1;rotation=90;fillColor=#E6E6E6;" vertex="1" parent="4PnGIhgpf6ZRVwXPBGym-13">
          <mxGeometry x="114.00358974358971" y="18.20099255583125" width="15" height="75.62" as="geometry" />
        </mxCell>
        <mxCell id="4PnGIhgpf6ZRVwXPBGym-5" value="" style="whiteSpace=wrap;gradientDirection=east;html=1;rotation=90;fillColor=#E6E6E6;" vertex="1" parent="4PnGIhgpf6ZRVwXPBGym-13">
          <mxGeometry x="122.88358974358971" y="11.25099255583126" width="15" height="58.5" as="geometry" />
        </mxCell>
        <mxCell id="4PnGIhgpf6ZRVwXPBGym-20" value="" style="whiteSpace=wrap;gradientDirection=east;html=1;" vertex="1" parent="4PnGIhgpf6ZRVwXPBGym-13">
          <mxGeometry x="280.2127386797596" y="20.427915632754292" width="13.031914893617055" height="15.576923076923187" as="geometry" />
        </mxCell>
        <mxCell id="4PnGIhgpf6ZRVwXPBGym-21" value="" style="whiteSpace=wrap;fillColor=#E6E6E6;gradientColor=none;gradientDirection=east;strokeColor=none;html=1;fontColor=#23445d;" vertex="1" parent="4PnGIhgpf6ZRVwXPBGym-13">
          <mxGeometry x="280.21273867975935" y="0.03868486352351397" width="13.031914893617055" height="15.576923076923187" as="geometry" />
        </mxCell>
        <mxCell id="4PnGIhgpf6ZRVwXPBGym-22" value="&lt;font style=&quot;font-size: 10px;&quot;&gt;Female&lt;/font&gt;" style="text;spacingTop=-5;html=1;points=[];fontSize=15;" vertex="1" parent="4PnGIhgpf6ZRVwXPBGym-13">
          <mxGeometry x="300.2163557010364" y="-5.150161290322643" width="29.78723404255319" height="10.38461538461538" as="geometry" />
        </mxCell>
        <mxCell id="4PnGIhgpf6ZRVwXPBGym-23" value="&lt;font style=&quot;font-size: 10px;&quot;&gt;Male&lt;/font&gt;" style="text;spacingTop=-5;html=1;points=[];fontSize=15;" vertex="1" parent="4PnGIhgpf6ZRVwXPBGym-13">
          <mxGeometry x="300.2163557010364" y="15.619069478908074" width="29.78723404255319" height="10.38461538461538" as="geometry" />
        </mxCell>
        <mxCell id="4PnGIhgpf6ZRVwXPBGym-14" value="&lt;font style=&quot;font-size: 18px;&quot;&gt;Age at diagnosis by sex&lt;/font&gt;" style="text;spacingTop=-5;align=center;verticalAlign=middle;fontSize=30;fontStyle=1;html=1;points=[]" vertex="1" parent="1">
          <mxGeometry x="324.6770212765958" y="186.63" width="301.595744680851" height="23.365384615384606" as="geometry" />
        </mxCell>
      </root>
    </mxGraphModel>
  </diagram>
  <diagram name="Demographics" id="GjWryrLajrEz_f-XNy73">
    <mxGraphModel dx="1050" dy="654" grid="1" gridSize="10" guides="1" tooltips="1" connect="1" arrows="1" fold="1" page="1" pageScale="1" pageWidth="850" pageHeight="1100" math="0" shadow="0">
      <root>
        <mxCell id="OL261YRCvcUSS2wV03n3-0" />
        <mxCell id="OL261YRCvcUSS2wV03n3-1" parent="OL261YRCvcUSS2wV03n3-0" />
        <mxCell id="OL261YRCvcUSS2wV03n3-2" value="" style="whiteSpace=wrap;html=1;rounded=0;shadow=0;labelBackgroundColor=none;strokeColor=#000000;strokeWidth=1;fillColor=none;fontFamily=Verdana;fontSize=12;fontColor=#000000;align=center;comic=0;" vertex="1" parent="OL261YRCvcUSS2wV03n3-1">
          <mxGeometry x="20" y="10" width="1060" height="810" as="geometry" />
        </mxCell>
        <mxCell id="OL261YRCvcUSS2wV03n3-3" value="Regulatory Science Lab" style="whiteSpace=wrap;html=1;rounded=0;shadow=0;labelBackgroundColor=none;strokeWidth=1;fontFamily=Verdana;fontSize=28;align=center;comic=0;" vertex="1" parent="OL261YRCvcUSS2wV03n3-1">
          <mxGeometry x="40" y="60" width="360" height="50" as="geometry" />
        </mxCell>
        <mxCell id="OL261YRCvcUSS2wV03n3-4" value="" style="line;strokeWidth=1;html=1;rounded=0;shadow=0;labelBackgroundColor=none;fillColor=none;fontFamily=Verdana;fontSize=14;fontColor=#000000;align=center;comic=0;" vertex="1" parent="OL261YRCvcUSS2wV03n3-1">
          <mxGeometry x="20" y="140" width="1060" height="10" as="geometry" />
        </mxCell>
        <mxCell id="OL261YRCvcUSS2wV03n3-5" value="Genetic Testing" style="text;html=1;points=[];align=left;verticalAlign=top;spacingTop=-4;fontSize=14;fontFamily=Verdana;comic=0;" vertex="1" parent="OL261YRCvcUSS2wV03n3-1">
          <mxGeometry x="650" y="75" width="60" height="20" as="geometry" />
        </mxCell>
        <mxCell id="OL261YRCvcUSS2wV03n3-6" value="Treatment" style="text;html=1;points=[];align=left;verticalAlign=top;spacingTop=-4;fontSize=14;fontFamily=Verdana;comic=0;" vertex="1" parent="OL261YRCvcUSS2wV03n3-1">
          <mxGeometry x="786" y="75" width="60" height="20" as="geometry" />
        </mxCell>
        <mxCell id="OL261YRCvcUSS2wV03n3-7" value="Outcomes" style="text;html=1;points=[];align=left;verticalAlign=top;spacingTop=-4;fontSize=14;fontFamily=Verdana;comic=0;" vertex="1" parent="OL261YRCvcUSS2wV03n3-1">
          <mxGeometry x="893" y="75" width="60" height="20" as="geometry" />
        </mxCell>
        <mxCell id="OL261YRCvcUSS2wV03n3-8" value="Demographics" style="text;html=1;points=[];align=left;verticalAlign=top;spacingTop=-4;fontSize=14;fontFamily=Verdana;comic=0;" vertex="1" parent="OL261YRCvcUSS2wV03n3-1">
          <mxGeometry x="520" y="75" width="60" height="20" as="geometry" />
        </mxCell>
        <mxCell id="OL261YRCvcUSS2wV03n3-9" value="Home" style="text;html=1;points=[];align=left;verticalAlign=top;spacingTop=-4;fontSize=14;fontFamily=Verdana;comic=0;" vertex="1" parent="OL261YRCvcUSS2wV03n3-1">
          <mxGeometry x="450" y="75" width="60" height="20" as="geometry" />
        </mxCell>
      </root>
    </mxGraphModel>
  </diagram>
  <diagram name="Genetic Testing" id="a2UWUBiCQo6CMq0fzzS6">
    <mxGraphModel dx="1050" dy="654" grid="1" gridSize="10" guides="1" tooltips="1" connect="1" arrows="1" fold="1" page="1" pageScale="1" pageWidth="850" pageHeight="1100" math="0" shadow="0">
      <root>
        <mxCell id="dBwdLEK_rU9olI3U1yoa-0" />
        <mxCell id="dBwdLEK_rU9olI3U1yoa-1" parent="dBwdLEK_rU9olI3U1yoa-0" />
        <mxCell id="dBwdLEK_rU9olI3U1yoa-2" value="" style="whiteSpace=wrap;html=1;rounded=0;shadow=0;labelBackgroundColor=none;strokeColor=#000000;strokeWidth=1;fillColor=none;fontFamily=Verdana;fontSize=12;fontColor=#000000;align=center;comic=0;" vertex="1" parent="dBwdLEK_rU9olI3U1yoa-1">
          <mxGeometry x="20" y="10" width="1060" height="810" as="geometry" />
        </mxCell>
        <mxCell id="dBwdLEK_rU9olI3U1yoa-3" value="Regulatory Science Lab" style="whiteSpace=wrap;html=1;rounded=0;shadow=0;labelBackgroundColor=none;strokeWidth=1;fontFamily=Verdana;fontSize=28;align=center;comic=0;" vertex="1" parent="dBwdLEK_rU9olI3U1yoa-1">
          <mxGeometry x="40" y="60" width="360" height="50" as="geometry" />
        </mxCell>
        <mxCell id="dBwdLEK_rU9olI3U1yoa-4" value="" style="line;strokeWidth=1;html=1;rounded=0;shadow=0;labelBackgroundColor=none;fillColor=none;fontFamily=Verdana;fontSize=14;fontColor=#000000;align=center;comic=0;" vertex="1" parent="dBwdLEK_rU9olI3U1yoa-1">
          <mxGeometry x="20" y="140" width="1060" height="10" as="geometry" />
        </mxCell>
        <mxCell id="dBwdLEK_rU9olI3U1yoa-5" value="Genetic Testing" style="text;html=1;points=[];align=left;verticalAlign=top;spacingTop=-4;fontSize=14;fontFamily=Verdana;comic=0;" vertex="1" parent="dBwdLEK_rU9olI3U1yoa-1">
          <mxGeometry x="650" y="75" width="60" height="20" as="geometry" />
        </mxCell>
        <mxCell id="dBwdLEK_rU9olI3U1yoa-6" value="Treatment" style="text;html=1;points=[];align=left;verticalAlign=top;spacingTop=-4;fontSize=14;fontFamily=Verdana;comic=0;" vertex="1" parent="dBwdLEK_rU9olI3U1yoa-1">
          <mxGeometry x="786" y="75" width="60" height="20" as="geometry" />
        </mxCell>
        <mxCell id="dBwdLEK_rU9olI3U1yoa-7" value="Outcomes" style="text;html=1;points=[];align=left;verticalAlign=top;spacingTop=-4;fontSize=14;fontFamily=Verdana;comic=0;" vertex="1" parent="dBwdLEK_rU9olI3U1yoa-1">
          <mxGeometry x="893" y="75" width="60" height="20" as="geometry" />
        </mxCell>
        <mxCell id="dBwdLEK_rU9olI3U1yoa-8" value="Demographics" style="text;html=1;points=[];align=left;verticalAlign=top;spacingTop=-4;fontSize=14;fontFamily=Verdana;comic=0;" vertex="1" parent="dBwdLEK_rU9olI3U1yoa-1">
          <mxGeometry x="520" y="75" width="60" height="20" as="geometry" />
        </mxCell>
        <mxCell id="dBwdLEK_rU9olI3U1yoa-9" value="Home" style="text;html=1;points=[];align=left;verticalAlign=top;spacingTop=-4;fontSize=14;fontFamily=Verdana;comic=0;" vertex="1" parent="dBwdLEK_rU9olI3U1yoa-1">
          <mxGeometry x="450" y="75" width="60" height="20" as="geometry" />
        </mxCell>
      </root>
    </mxGraphModel>
  </diagram>
  <diagram name="Treatment" id="XMX9Qb3BRF3eoK2S_P1v">
    <mxGraphModel dx="1050" dy="654" grid="1" gridSize="10" guides="1" tooltips="1" connect="1" arrows="1" fold="1" page="1" pageScale="1" pageWidth="850" pageHeight="1100" math="0" shadow="0">
      <root>
        <mxCell id="hA0iUGrO9QW2hmTUXLEj-0" />
        <mxCell id="hA0iUGrO9QW2hmTUXLEj-1" parent="hA0iUGrO9QW2hmTUXLEj-0" />
        <mxCell id="hA0iUGrO9QW2hmTUXLEj-2" value="" style="whiteSpace=wrap;html=1;rounded=0;shadow=0;labelBackgroundColor=none;strokeColor=#000000;strokeWidth=1;fillColor=none;fontFamily=Verdana;fontSize=12;fontColor=#000000;align=center;comic=0;" vertex="1" parent="hA0iUGrO9QW2hmTUXLEj-1">
          <mxGeometry x="20" y="10" width="1060" height="810" as="geometry" />
        </mxCell>
        <mxCell id="hA0iUGrO9QW2hmTUXLEj-3" value="Regulatory Science Lab" style="whiteSpace=wrap;html=1;rounded=0;shadow=0;labelBackgroundColor=none;strokeWidth=1;fontFamily=Verdana;fontSize=28;align=center;comic=0;" vertex="1" parent="hA0iUGrO9QW2hmTUXLEj-1">
          <mxGeometry x="40" y="60" width="360" height="50" as="geometry" />
        </mxCell>
        <mxCell id="hA0iUGrO9QW2hmTUXLEj-4" value="" style="line;strokeWidth=1;html=1;rounded=0;shadow=0;labelBackgroundColor=none;fillColor=none;fontFamily=Verdana;fontSize=14;fontColor=#000000;align=center;comic=0;" vertex="1" parent="hA0iUGrO9QW2hmTUXLEj-1">
          <mxGeometry x="20" y="140" width="1060" height="10" as="geometry" />
        </mxCell>
        <mxCell id="hA0iUGrO9QW2hmTUXLEj-5" value="Genetic Testing" style="text;html=1;points=[];align=left;verticalAlign=top;spacingTop=-4;fontSize=14;fontFamily=Verdana;comic=0;" vertex="1" parent="hA0iUGrO9QW2hmTUXLEj-1">
          <mxGeometry x="650" y="75" width="60" height="20" as="geometry" />
        </mxCell>
        <mxCell id="hA0iUGrO9QW2hmTUXLEj-6" value="Treatment" style="text;html=1;points=[];align=left;verticalAlign=top;spacingTop=-4;fontSize=14;fontFamily=Verdana;comic=0;" vertex="1" parent="hA0iUGrO9QW2hmTUXLEj-1">
          <mxGeometry x="786" y="75" width="60" height="20" as="geometry" />
        </mxCell>
        <mxCell id="hA0iUGrO9QW2hmTUXLEj-7" value="Outcomes" style="text;html=1;points=[];align=left;verticalAlign=top;spacingTop=-4;fontSize=14;fontFamily=Verdana;comic=0;" vertex="1" parent="hA0iUGrO9QW2hmTUXLEj-1">
          <mxGeometry x="893" y="75" width="60" height="20" as="geometry" />
        </mxCell>
        <mxCell id="hA0iUGrO9QW2hmTUXLEj-8" value="Demographics" style="text;html=1;points=[];align=left;verticalAlign=top;spacingTop=-4;fontSize=14;fontFamily=Verdana;comic=0;" vertex="1" parent="hA0iUGrO9QW2hmTUXLEj-1">
          <mxGeometry x="520" y="75" width="60" height="20" as="geometry" />
        </mxCell>
        <mxCell id="hA0iUGrO9QW2hmTUXLEj-9" value="Home" style="text;html=1;points=[];align=left;verticalAlign=top;spacingTop=-4;fontSize=14;fontFamily=Verdana;comic=0;" vertex="1" parent="hA0iUGrO9QW2hmTUXLEj-1">
          <mxGeometry x="450" y="75" width="60" height="20" as="geometry" />
        </mxCell>
      </root>
    </mxGraphModel>
  </diagram>
  <diagram name="Outcomes" id="fyfJFGNFccASTtB0rAde">
    <mxGraphModel dx="1050" dy="654" grid="1" gridSize="10" guides="1" tooltips="1" connect="1" arrows="1" fold="1" page="1" pageScale="1" pageWidth="850" pageHeight="1100" math="0" shadow="0">
      <root>
        <mxCell id="C8o5NmIvRgCs_yMu0pOz-0" />
        <mxCell id="C8o5NmIvRgCs_yMu0pOz-1" parent="C8o5NmIvRgCs_yMu0pOz-0" />
        <mxCell id="C8o5NmIvRgCs_yMu0pOz-2" value="" style="whiteSpace=wrap;html=1;rounded=0;shadow=0;labelBackgroundColor=none;strokeColor=#000000;strokeWidth=1;fillColor=none;fontFamily=Verdana;fontSize=12;fontColor=#000000;align=center;comic=0;" vertex="1" parent="C8o5NmIvRgCs_yMu0pOz-1">
          <mxGeometry x="20" y="10" width="1060" height="810" as="geometry" />
        </mxCell>
        <mxCell id="C8o5NmIvRgCs_yMu0pOz-3" value="Regulatory Science Lab" style="whiteSpace=wrap;html=1;rounded=0;shadow=0;labelBackgroundColor=none;strokeWidth=1;fontFamily=Verdana;fontSize=28;align=center;comic=0;" vertex="1" parent="C8o5NmIvRgCs_yMu0pOz-1">
          <mxGeometry x="40" y="60" width="360" height="50" as="geometry" />
        </mxCell>
        <mxCell id="C8o5NmIvRgCs_yMu0pOz-4" value="" style="line;strokeWidth=1;html=1;rounded=0;shadow=0;labelBackgroundColor=none;fillColor=none;fontFamily=Verdana;fontSize=14;fontColor=#000000;align=center;comic=0;" vertex="1" parent="C8o5NmIvRgCs_yMu0pOz-1">
          <mxGeometry x="20" y="140" width="1060" height="10" as="geometry" />
        </mxCell>
        <mxCell id="C8o5NmIvRgCs_yMu0pOz-5" value="Genetic Testing" style="text;html=1;points=[];align=left;verticalAlign=top;spacingTop=-4;fontSize=14;fontFamily=Verdana;comic=0;" vertex="1" parent="C8o5NmIvRgCs_yMu0pOz-1">
          <mxGeometry x="650" y="75" width="60" height="20" as="geometry" />
        </mxCell>
        <mxCell id="C8o5NmIvRgCs_yMu0pOz-6" value="Treatment" style="text;html=1;points=[];align=left;verticalAlign=top;spacingTop=-4;fontSize=14;fontFamily=Verdana;comic=0;" vertex="1" parent="C8o5NmIvRgCs_yMu0pOz-1">
          <mxGeometry x="786" y="75" width="60" height="20" as="geometry" />
        </mxCell>
        <mxCell id="C8o5NmIvRgCs_yMu0pOz-7" value="Outcomes" style="text;html=1;points=[];align=left;verticalAlign=top;spacingTop=-4;fontSize=14;fontFamily=Verdana;comic=0;" vertex="1" parent="C8o5NmIvRgCs_yMu0pOz-1">
          <mxGeometry x="893" y="75" width="60" height="20" as="geometry" />
        </mxCell>
        <mxCell id="C8o5NmIvRgCs_yMu0pOz-8" value="Demographics" style="text;html=1;points=[];align=left;verticalAlign=top;spacingTop=-4;fontSize=14;fontFamily=Verdana;comic=0;" vertex="1" parent="C8o5NmIvRgCs_yMu0pOz-1">
          <mxGeometry x="520" y="75" width="60" height="20" as="geometry" />
        </mxCell>
        <mxCell id="C8o5NmIvRgCs_yMu0pOz-9" value="Home" style="text;html=1;points=[];align=left;verticalAlign=top;spacingTop=-4;fontSize=14;fontFamily=Verdana;comic=0;" vertex="1" parent="C8o5NmIvRgCs_yMu0pOz-1">
          <mxGeometry x="450" y="75" width="60" height="20" as="geometry" />
        </mxCell>
      </root>
    </mxGraphModel>
  </diagram>
</mxfile>
